<?xml version="1.0" encoding="iso-8859-1"?>
<!-- Uploaded to: SVG Repo, www.svgrepo.com, Generator: SVG Repo Mixer Tools -->
<!DOCTYPE svg PUBLIC "-//W3C//DTD SVG 1.1//EN" "http://www.w3.org/Graphics/SVG/1.1/DTD/svg11.dtd">
<svg fill="#000000" height="800px" width="800px" version="1.1" id="Capa_1" xmlns="http://www.w3.org/2000/svg" xmlns:xlink="http://www.w3.org/1999/xlink" 
	 viewBox="0 0 299.954 299.954" xml:space="preserve">
<path d="M256.419,169.337l-6.637-53.825c0.377-2.044,0.104-3.953-0.736-5.793l-2.138-17.17h18.546c3.567,0,6.642-2.514,7.351-6.01
	l6.281-30.99h10.368c4.143,0,7.5-3.357,7.5-7.5s-3.357-7.5-7.5-7.5h-16.5c-3.567,0-6.642,2.514-7.351,6.01l-6.281,30.99h-20.896
	c-2.149,0-4.195,0.75-5.618,2.36c-1.424,1.609-2.089,3.667-1.825,5.8l2.521,20.401c-1.022,0.863-1.89,2.124-2.52,3.401
	l-46.75,95.039h-95.26c-4.456-20-21.715-34.566-42.461-35.228c-12.866-0.407-24.924,4.393-33.826,13.584
	c-8.561,8.837-13.058,20.436-12.664,32.753c0.756,23.669,19.889,42.776,43.558,43.532c0.491,0.016,0.979,0.011,1.468,0.011
	c12.304,0,23.796-4.671,32.358-13.512c5.84-6.03,9.786-13.14,11.581-21.14h101.466c3.809,0,7.286-2.368,8.97-5.784l38.355-77.926
	l3.771,30.532c-18.338,5.705-31.691,22.809-31.691,43.001c0,24.839,20.208,45.034,45.047,45.034
	c24.84,0,45.048-20.214,45.048-45.053C299.954,190.02,280.56,170.139,256.419,169.337z M63.041,231.768
	c-4.954,5.114-11.679,7.737-18.821,7.508c-13.153-0.42-23.786-11.104-24.206-24.257c-0.22-6.855,2.281-13.363,7.04-18.277
	c4.762-4.916,11.151-7.637,17.992-7.637c0.276,0,0.552,0.203,0.83,0.212c9.903,0.315,18.375,6.231,22.137,15.231H45.048
	c-5.522,0-10,4.478-10,10s4.478,10,10,10h22.976C66.841,226.548,65.169,229.571,63.041,231.768z M254.907,239.393
	c-13.811,0-25.047-11.236-25.047-25.047c0-9.933,5.811-18.533,14.212-22.581l2.872,23.292c0.468,3.8,3.701,6.583,7.434,6.583
	c0.307,0,0.616-0.019,0.928-0.058c4.111-0.507,7.032-4.25,6.525-8.361l-2.91-23.597c11.909,1.927,21.034,12.277,21.034,24.722
	C279.954,228.157,268.718,239.393,254.907,239.393z"/>
</svg>