<?xml version="1.0" encoding="iso-8859-1"?>
<!-- Uploaded to: SVG Repo, www.svgrepo.com, Generator: SVG Repo Mixer Tools -->
<!DOCTYPE svg PUBLIC "-//W3C//DTD SVG 1.1//EN" "http://www.w3.org/Graphics/SVG/1.1/DTD/svg11.dtd">
<svg fill="#000000" height="800px" width="800px" version="1.1" id="Capa_1" xmlns="http://www.w3.org/2000/svg" xmlns:xlink="http://www.w3.org/1999/xlink" 
	 viewBox="0 0 295.125 295.125" xml:space="preserve">
<path d="M236.078,134.313c-0.073,0-0.145,0.005-0.218,0.006l-7.781-63.101h18.546c1.657,0,3.269-0.549,4.581-1.562l17.5-13.5
	c3.279-2.53,3.888-7.24,1.357-10.52s-7.241-3.889-10.52-1.357l-15.476,11.938h-24.471c-2.149,0-4.195,0.922-5.618,2.532
	c-1.424,1.609-2.089,3.753-1.825,5.886l3.409,27.647c-0.308-0.039-0.62-0.065-0.938-0.065h-98.016l-7.918-23.659l24.118-6.692
	c3.615-1.003,5.933-4.483,5.427-8.2s-3.681-6.45-7.432-6.45H78.318c-6.56,0-11.697,4.562-11.697,10.436
	c0,9.094,8.683,16.198,19.768,16.198c0.976,0,1.951-0.068,2.918-0.184l11.864,35.446l-7.811,12.622l-20.068-9.508v-29.01
	c0-4.143-3.024-7-7.167-7h-49.5c-4.143,0-8.333,2.857-8.333,7v33c0,4.143,4.19,8,8.333,8h11.209l6.295,15.608
	c-6.456,3.008-12.375,7.087-17.499,12.377c-11.22,11.584-17.115,26.793-16.6,42.94c0.99,31.023,26.066,56.069,57.09,57.06
	c0.646,0.021,1.285,0.016,1.926,0.016c16.129,0,31.192-6.391,42.417-17.979c7.584-7.83,12.725-17.353,15.108-27.684l10.322,1.049
	c3.63,8.023,11.704,13.621,21.067,13.621c12.745,0,23.114-10.37,23.114-23.115c0-6.155-2.423-11.752-6.36-15.898l53.918-65.038
	l2.355,19.101c-25.272,6.686-43.958,29.741-43.958,57.085c0,32.56,26.488,59.048,59.048,59.048
	c32.559,0,59.047-26.488,59.047-59.048C295.125,160.802,268.637,134.313,236.078,134.313z M207.403,107.218l-56.365,67.99
	c-1.007-0.135-2.033-0.211-3.077-0.211c-1.209,0-2.397,0.094-3.557,0.274l-22.775-68.053H207.403z M127.418,187.536
	c-0.79,1.528-1.419,3.152-1.854,4.854l-7.497-0.764c-0.003-0.133,0.001-0.266-0.003-0.399c-0.571-17.895-9.167-33.799-22.285-44.255
	l11.633-19.212L127.418,187.536z M63.12,171.949L54.16,149.38c1.611-0.176,3.241-0.274,4.887-0.274c0.481,0,0.962,0.008,1.447,0.023
	c5.142,0.164,10.063,1.22,14.619,3.01L63.12,171.949z M72.547,186.99c-0.145-0.303-0.293-0.603-0.457-0.895l15.841-26.162
	c8.563,7.455,14.226,18.151,15.05,30.157L72.547,186.99z M44.172,124.218h19.754l21.793,10.409l-2.752,4.545
	c-6.763-3.009-14.189-4.785-21.993-5.034c-4.254-0.134-8.438,0.177-12.505,0.904L44.172,124.218z M90.689,223.795
	c-8.709,8.991-20.484,13.783-33.09,13.384c-23.136-0.738-41.838-19.44-42.576-42.577c-0.385-12.052,4.013-23.448,12.382-32.089
	c3.614-3.731,7.763-6.734,12.278-8.948l10.969,27.632c-3.845,2.689-6.37,7.142-6.37,12.18c0,8.196,6.668,14.864,14.863,14.864
	c5.008,0,9.436-2.497,12.131-6.303l30.213,3.077C99.548,212.002,95.886,218.43,90.689,223.795z M236.078,237.408
	c-24.288,0-44.048-19.76-44.048-44.048c0-19.679,12.974-36.382,30.816-42.013l3.777,30.631c-3.261,2.729-5.342,6.824-5.342,11.399
	c0,8.196,6.668,14.864,14.863,14.864c8.196,0,14.864-6.668,14.864-14.864c0-6.332-3.988-11.737-9.578-13.875l-3.718-30.147
	c23.531,0.865,42.411,20.267,42.411,44.005C280.125,217.648,260.365,237.408,236.078,237.408z"/>
</svg>